# xmcd CD database file
#
# Track frame offsets:
#	150
#	15035
#	32472
#	54255
#	71490
#	85857
#	100285
#	126859
#	145692
#	164284
#	182610
#	197157
#	210768
#	224932
#
# Disc length: 3236 seconds
#
# Revision: 0
# Processed by: cddbd v1.5.2PL0 Copyright (c) Steve Scherf et al.
# Submitted via: CDex 1.70beta2
#
DISCID=b60ca20e
DTITLE=Jakub Smolik - The Best of
DYEAR=1998
DGENRE=Country
TTITLE0=Az se ti jednou bude zdat
TTITLE1=Vis ...
TTITLE2=Ave Maria
TTITLE3=Zokejska balada
TTITLE4=Jeste nechod spat
TTITLE5=Tobe I
TTITLE6=Ticha noc 1864
TTITLE7=Jen blazen zarli
TTITLE8=Tobe II
TTITLE9=Hvezda k zemi pada
TTITLE10=Kozenej klobouk
TTITLE11=O nespocetne krase tela
TTITLE12=Srdce na dlani
TTITLE13=Sen kovboju
EXTD=YEAR: 1998
EXTT0=
EXTT1=
EXTT2=
EXTT3=
EXTT4=
EXTT5=
EXTT6=
EXTT7=
EXTT8=
EXTT9=
EXTT10=
EXTT11=
EXTT12=
EXTT13=
PLAYORDER=
